<svg width="61" height="21" viewBox="0 0 61 21" fill="none" xmlns="http://www.w3.org/2000/svg">
<path d="M6.77523 5.91358C6.74323 5.99358 6.72723 6.09758 6.72723 6.22558C6.72723 6.48158 6.83123 6.68958 7.03923 6.84958C7.26323 6.99358 7.56723 7.06558 7.95123 7.06558H11.1192V11.3136C9.79123 11.2016 8.73523 11.1376 7.95123 11.1216C7.96723 14.0976 8.03123 17.0976 8.14323 20.1216H2.45523C2.47123 18.2336 2.47923 15.2576 2.47923 11.1936C2.14323 11.2096 1.56723 11.2496 0.75123 11.3136V7.06558H2.45523V6.60958C2.45523 5.36158 2.71123 4.29758 3.22323 3.41758C3.73523 2.53758 4.43923 1.87358 5.33523 1.42558C6.24723 0.977581 7.28723 0.753581 8.45523 0.753581C9.39923 0.753581 10.3512 0.889581 11.3112 1.16158C10.9912 2.32958 10.6712 3.79358 10.3512 5.55358L10.2072 6.27358C9.85523 5.96958 9.46323 5.74558 9.03123 5.60158C8.61523 5.44158 8.23123 5.36158 7.87923 5.36158C7.59123 5.36158 7.35123 5.40958 7.15923 5.50558C6.96723 5.60158 6.83923 5.73758 6.77523 5.91358ZM20.0039 20.3616C17.2679 20.3616 15.2519 19.7376 13.9559 18.4896C12.6759 17.2256 12.0359 15.5696 12.0359 13.5216C12.0359 11.5216 12.6759 9.89758 13.9559 8.64958C15.2519 7.40158 17.2679 6.77758 20.0039 6.77758C21.8439 6.77758 23.3799 7.08158 24.6119 7.68958C25.8599 8.28158 26.7799 9.08958 27.3719 10.1136C27.9639 11.1216 28.2599 12.2576 28.2599 13.5216C28.2599 15.5856 27.5719 17.2416 26.1959 18.4896C24.8359 19.7376 22.7719 20.3616 20.0039 20.3616ZM20.0999 16.2816C21.1399 16.2816 21.9159 16.0336 22.4279 15.5376C22.9399 15.0416 23.1959 14.3776 23.1959 13.5456C23.1959 12.7616 22.9399 12.1216 22.4279 11.6256C21.9159 11.1136 21.1399 10.8576 20.0999 10.8576C19.0599 10.8576 18.2999 11.1056 17.8199 11.6016C17.3399 12.0976 17.0999 12.7456 17.0999 13.5456C17.0999 14.3776 17.3399 15.0416 17.8199 15.5376C18.2999 16.0336 19.0599 16.2816 20.0999 16.2816ZM35.5878 10.5216C35.5718 11.4816 35.5638 12.9536 35.5638 14.9376C35.5638 17.3216 35.5798 19.0496 35.6118 20.1216H29.9478L29.9718 17.4096C30.0038 14.4336 30.0198 12.1376 30.0198 10.5216C30.0198 8.98558 30.0038 6.80958 29.9718 3.99358L29.9478 1.40158H35.6118C35.5798 3.67358 35.5638 5.52958 35.5638 6.96958C35.5638 8.56958 35.5718 9.75358 35.5878 10.5216ZM52.9255 16.1376C52.9255 16.6816 52.9895 17.0656 53.1175 17.2896C53.2455 17.5136 53.5015 17.6736 53.8855 17.7696L53.7895 20.0256C53.2775 20.1056 52.8295 20.1616 52.4455 20.1936C52.0775 20.2256 51.5815 20.2416 50.9575 20.2416C49.5815 20.2416 48.6695 19.9376 48.2215 19.3296C47.7735 18.7056 47.5495 17.9136 47.5495 16.9536V16.3536C47.0855 17.6656 46.4055 18.6416 45.5095 19.2816C44.6295 19.9216 43.5015 20.2416 42.1255 20.2416C40.5255 20.2416 39.3175 19.9216 38.5015 19.2816C37.7015 18.6416 37.3015 17.6896 37.3015 16.4256C37.3015 15.3856 37.6455 14.5696 38.3335 13.9776C39.0215 13.3856 40.0855 12.9776 41.5255 12.7536C40.3095 11.8896 39.0935 11.1376 37.8775 10.4976C38.8375 9.28158 39.9335 8.36158 41.1655 7.73758C42.3975 7.09758 43.8935 6.77758 45.6535 6.77758C48.1175 6.77758 49.9415 7.31358 51.1255 8.38558C52.3255 9.44158 52.9255 11.0736 52.9255 13.2816V16.1376ZM46.1575 11.0016C45.3415 11.0016 44.6215 11.1376 43.9975 11.4096C43.3735 11.6816 42.8135 12.0896 42.3175 12.6336C43.2775 12.5216 44.4775 12.4656 45.9175 12.4656C46.5095 12.4656 46.9255 12.3936 47.1655 12.2496C47.4055 12.1056 47.5255 11.9216 47.5255 11.6976C47.5255 11.5056 47.4055 11.3456 47.1655 11.2176C46.9255 11.0736 46.5895 11.0016 46.1575 11.0016ZM43.6375 16.3296C44.5335 16.3296 45.3415 16.1616 46.0615 15.8256C46.7815 15.4736 47.2775 15.0176 47.5495 14.4576V13.8336C47.1655 14.0256 46.7415 14.1776 46.2775 14.2896C45.8135 14.3856 45.2535 14.4816 44.5975 14.5776L43.7335 14.7216C42.8375 14.8976 42.3895 15.2016 42.3895 15.6336C42.3895 16.0976 42.8055 16.3296 43.6375 16.3296ZM57.6346 20.3616C56.9306 20.3616 56.3306 20.1136 55.8346 19.6176C55.3386 19.1056 55.0906 18.4976 55.0906 17.7936C55.0906 17.0896 55.3386 16.4896 55.8346 15.9936C56.3306 15.4976 56.9306 15.2496 57.6346 15.2496C58.3226 15.2496 58.9146 15.5056 59.4106 16.0176C59.9226 16.5136 60.1786 17.1056 60.1786 17.7936C60.1786 18.4976 59.9226 19.1056 59.4106 19.6176C58.9146 20.1136 58.3226 20.3616 57.6346 20.3616Z" fill="white"/>
</svg>
